<?xml version="1.0" encoding="UTF-8" standalone="no"?>
<svg
   width="20"
   height="20"
   viewBox="0 0 20 20"
   version="1.1"
   id="svg1"
   sodipodi:docname="favicon.svg"
   inkscape:version="1.4.2 (f4327f4, 2025-05-13)"
   inkscape:export-filename="favicon.ico"
   inkscape:export-xdpi="153.60001"
   inkscape:export-ydpi="153.60001"
   xmlns:inkscape="http://www.inkscape.org/namespaces/inkscape"
   xmlns:sodipodi="http://sodipodi.sourceforge.net/DTD/sodipodi-0.dtd"
   xmlns="http://www.w3.org/2000/svg"
   xmlns:svg="http://www.w3.org/2000/svg">
  <defs
     id="defs1" />
  <sodipodi:namedview
     id="namedview1"
     pagecolor="#ffffff"
     bordercolor="#000000"
     borderopacity="0.25"
     inkscape:showpageshadow="2"
     inkscape:pageopacity="0.0"
     inkscape:pagecheckerboard="0"
     inkscape:deskcolor="#d1d1d1"
     inkscape:zoom="25.270833"
     inkscape:cx="-1.6224237"
     inkscape:cy="10.070899"
     inkscape:window-width="2560"
     inkscape:window-height="1494"
     inkscape:window-x="-11"
     inkscape:window-y="-11"
     inkscape:window-maximized="1"
     inkscape:current-layer="svg1" />
  <path
     fill="none"
     stroke="#8080ff"
     stroke-linecap="round"
     stroke-linejoin="round"
     stroke-width="2"
     d="M 1,5 A 3,3 0 0 1 4,2 h 12 a 3,3 0 0 1 3,3 v 2 a 3,3 0 0 1 -3,3 H 4 A 3,3 0 0 1 1,7 Z m 0,8 a 3,3 0 0 1 3,-3 h 12 a 3,3 0 0 1 3,3 v 2 a 3,3 0 0 1 -3,3 H 4 A 3,3 0 0 1 1,15 Z M 5,6 V 6.01 M 5,14 v 0.01 M 9,6 h 6 m -6,8 h 6"
     id="path1" />
</svg>
